<svg width="27" height="19" viewBox="0 0 27 19" fill="none" xmlns="http://www.w3.org/2000/svg">
<path d="M27 18.6923H20.7692V14.5385C20.7698 13.9878 20.9888 13.4598 21.3781 13.0705C21.7675 12.6811 22.2955 12.4621 22.8461 12.4615H24.9231V10.3846H20.7692V8.30769H24.9231C25.4737 8.30824 26.0017 8.52723 26.3911 8.91661C26.7804 9.30599 26.9994 9.83395 27 10.3846V12.4615C26.9994 13.0122 26.7804 13.5402 26.3911 13.9295C26.0017 14.3189 25.4737 14.5379 24.9231 14.5385H22.8461V16.6154H27V18.6923ZM16.6154 14.5385H12.4615C11.9109 14.5379 11.3829 14.3189 10.9935 13.9295C10.6042 13.5402 10.3852 13.0122 10.3846 12.4615V2.07692C10.3852 1.52626 10.6042 0.998303 10.9935 0.608924C11.3829 0.219545 11.9109 0.000549841 12.4615 0H16.6154C17.166 0.000549841 17.694 0.219545 18.0834 0.608924C18.4728 0.998303 18.6918 1.52626 18.6923 2.07692V12.4615C18.6918 13.0122 18.4728 13.5402 18.0834 13.9295C17.694 14.3189 17.166 14.5379 16.6154 14.5385ZM12.4615 2.07692V12.4615H16.6154V2.07692H12.4615ZM8.30769 14.5385H2.07692C1.52626 14.5379 0.998303 14.3189 0.608924 13.9295C0.219544 13.5402 0.000549841 13.0122 0 12.4615V2.07692C0.000549841 1.52626 0.219544 0.998303 0.608924 0.608924C0.998303 0.219545 1.52626 0.000549841 2.07692 0H8.30769V2.07692H2.07692V12.4615H8.30769V14.5385Z" fill="black"/>
</svg>
