<svg width="24" height="24" viewBox="0 0 24 24" fill="none" xmlns="http://www.w3.org/2000/svg">
<path d="M21.8071 13.6477C22.0298 13.6477 22.2434 13.7362 22.4009 13.8938C22.5584 14.0513 22.6469 14.265 22.6469 14.4877V21.5366C22.6793 22.511 22.5617 23.1506 22.1262 23.5526C21.7207 23.9258 21.1329 24.0326 20.3711 23.9918H3.77133C2.99874 23.9534 2.39891 23.6402 2.12059 23.0078C1.93584 22.5914 1.84946 22.0994 1.84946 21.5342V14.4865C1.84946 14.2638 1.93794 14.0501 2.09542 13.8926C2.25291 13.735 2.46651 13.6465 2.68923 13.6465C2.91195 13.6465 3.12555 13.735 3.28303 13.8926C3.44052 14.0501 3.52899 14.2638 3.52899 14.4865V21.5342C3.52899 21.8126 3.56019 22.0382 3.61297 22.2086L3.65616 22.3262L3.65256 22.3142C3.65376 22.2986 3.68855 22.3046 3.81092 22.3118H20.4143C20.7082 22.3286 20.8953 22.3118 20.9613 22.3106L20.9661 22.3094C20.9505 22.2458 20.9805 21.9854 20.9661 21.563V14.4865C20.9661 14.3761 20.9879 14.2668 21.0302 14.1648C21.0724 14.0628 21.1344 13.9702 21.2125 13.8921C21.2906 13.8141 21.3833 13.7523 21.4854 13.7101C21.5874 13.668 21.6967 13.6464 21.8071 13.6465V13.6477ZM12.5169 0C12.8336 0 13.1167 0.124801 13.383 0.356403L23.7302 10.1233C23.8118 10.1987 23.8776 10.2896 23.9238 10.3906C23.9701 10.4917 23.9958 10.6009 23.9995 10.712C24.0033 10.8231 23.9849 10.9338 23.9456 11.0377C23.9062 11.1417 23.8467 11.2367 23.7703 11.3175C23.694 11.3982 23.6024 11.463 23.5008 11.5081C23.3992 11.5531 23.2897 11.5776 23.1787 11.58C23.0676 11.5825 22.9571 11.5629 22.8537 11.5223C22.7503 11.4817 22.6559 11.421 22.5761 11.3437L12.4785 1.81082L1.38879 11.3689C1.22016 11.5145 1.00061 11.5872 0.778443 11.5708C0.556275 11.5545 0.349685 11.4506 0.204122 11.2819C0.0585584 11.1132 -0.0140547 10.8936 0.0022564 10.6714C0.0185675 10.4492 0.122467 10.2425 0.291097 10.0969L11.6231 0.332403L11.7263 0.255602C11.983 0.0948009 12.2398 0.00120001 12.5181 0.00120001L12.5169 0Z" fill="black"/>
</svg>
