<svg width="29" height="27" viewBox="0 0 29 27" fill="none" xmlns="http://www.w3.org/2000/svg">
<path d="M25.2 21.78V19.8H8.28001L9.36001 17.82L25.92 16.2L28.8 5.4H6.66001L5.4 0H0V1.8H3.96L7.74001 16.92L5.4 21.6V24.3C5.4 25.74 6.66001 27 8.10001 27C9.54001 27 10.8 25.74 10.8 24.3C10.8 22.86 9.54001 21.6 8.10001 21.6H21.6V24.3C21.6 25.74 22.86 27 24.3 27C25.74 27 27 25.74 27 24.3C27 23.04 26.28 22.14 25.2 21.78ZM7.20001 7.20001H26.46L24.48 14.4L9.36001 16.02L7.20001 7.20001Z" fill="black"/>
</svg>
