<svg width="29" height="6" viewBox="0 0 29 6" fill="none" xmlns="http://www.w3.org/2000/svg">
<path d="M23.2 2.9C23.2 2.13087 23.5055 1.39325 24.0494 0.84939C24.5932 0.305535 25.3309 0 26.1 0C26.8691 0 27.6068 0.305535 28.1506 0.84939C28.6945 1.39325 29 2.13087 29 2.9C29 3.66913 28.6945 4.40675 28.1506 4.95061C27.6068 5.49447 26.8691 5.8 26.1 5.8C25.3309 5.8 24.5932 5.49447 24.0494 4.95061C23.5055 4.40675 23.2 3.66913 23.2 2.9ZM11.6 2.9C11.6 2.13087 11.9055 1.39325 12.4494 0.84939C12.9932 0.305535 13.7309 0 14.5 0C15.2691 0 16.0068 0.305535 16.5506 0.84939C17.0945 1.39325 17.4 2.13087 17.4 2.9C17.4 3.66913 17.0945 4.40675 16.5506 4.95061C16.0068 5.49447 15.2691 5.8 14.5 5.8C13.7309 5.8 12.9932 5.49447 12.4494 4.95061C11.9055 4.40675 11.6 3.66913 11.6 2.9ZM0 2.9C0 2.13087 0.305535 1.39325 0.84939 0.84939C1.39325 0.305535 2.13087 0 2.9 0C3.66913 0 4.40675 0.305535 4.95061 0.84939C5.49447 1.39325 5.8 2.13087 5.8 2.9C5.8 3.66913 5.49447 4.40675 4.95061 4.95061C4.40675 5.49447 3.66913 5.8 2.9 5.8C2.13087 5.8 1.39325 5.49447 0.84939 4.95061C0.305535 4.40675 0 3.66913 0 2.9Z" fill="black"/>
</svg>
